<svg width="84" height="84" viewBox="0 0 84 84" fill="none" xmlns="http://www.w3.org/2000/svg">
<path d="M19.6961 14.274L18.2329 12.8048C16.7697 11.3356 14.4061 11.3733 12.9805 12.8048L12.943 12.8425C11.4798 14.3116 11.4798 16.6849 12.943 18.1164L14.4061 19.5856C15.8693 21.0548 18.1954 21.0548 19.6585 19.5856L19.6961 19.5479C21.1592 18.1164 21.1592 15.7055 19.6961 14.274V14.274ZM8.29087 38.2329H4.46413C2.40069 38.2329 0.749939 39.8904 0.749939 41.9623V42C0.749939 44.0719 2.40069 45.7294 4.46413 45.7294H8.25335C10.3543 45.7671 12.0051 44.1096 12.0051 42.0377V42C12.0051 39.8904 10.3543 38.2329 8.29087 38.2329ZM42.0562 0.75H42.0187C39.9177 0.75 38.267 2.40753 38.267 4.47945V8.09589C38.267 10.1678 39.9177 11.8253 41.9812 11.8253H42.0187C44.1197 11.863 45.7704 10.2055 45.7704 8.13356V4.47945C45.7704 2.40753 44.1197 0.75 42.0562 0.75V0.75ZM71.0944 12.8425C69.6313 11.3733 67.2677 11.3733 65.8045 12.8048L64.3413 14.274C62.8782 15.7431 62.8782 18.1164 64.3413 19.5479L64.3789 19.5856C65.842 21.0548 68.2056 21.0548 69.6313 19.5856L71.0944 18.1164C72.5576 16.6473 72.5576 14.3116 71.0944 12.8425V12.8425ZM64.3038 69.726L65.767 71.1952C67.2302 72.6644 69.5937 72.6644 71.0569 71.1952C72.5201 69.726 72.5201 67.3527 71.0569 65.8836L69.5937 64.4144C68.1306 62.9452 65.767 62.9829 64.3413 64.4144C62.8407 65.9212 62.8407 68.2568 64.3038 69.726ZM72.0323 41.9623V42C72.0323 44.0719 73.6831 45.7294 75.7465 45.7294H79.5358C81.5992 45.7294 83.2499 44.0719 83.2499 42V41.9623C83.2499 39.8904 81.5992 38.2329 79.5358 38.2329H75.7465C73.6831 38.2329 72.0323 39.8904 72.0323 41.9623ZM42.0187 19.3973C29.6006 19.3973 19.5085 29.5308 19.5085 42C19.5085 54.4692 29.6006 64.6027 42.0187 64.6027C54.4368 64.6027 64.5289 54.4692 64.5289 42C64.5289 29.5308 54.4368 19.3973 42.0187 19.3973ZM41.9812 83.25H42.0187C44.0821 83.25 45.7329 81.5925 45.7329 79.5205V75.9041C45.7329 73.8322 44.0821 72.1747 42.0187 72.1747H41.9812C39.9177 72.1747 38.267 73.8322 38.267 75.9041V79.5205C38.267 81.5925 39.9177 83.25 41.9812 83.25ZM12.943 71.1575C14.4061 72.6267 16.7697 72.6267 18.2329 71.1575L19.6961 69.6884C21.1592 68.2192 21.1217 65.8459 19.6961 64.4144L19.6585 64.3767C18.1954 62.9075 15.8318 62.9075 14.3686 64.3767L12.9055 65.8459C11.4798 67.3527 11.4798 69.6884 12.943 71.1575Z" fill="#FFE600"/>
</svg>
